<svg width="24" height="19" viewBox="0 0 24 19" fill="none" xmlns="http://www.w3.org/2000/svg">
<path d="M21.2645 4.641C21.2801 4.84517 21.2801 5.04817 21.2801 5.25117C21.2801 11.4637 16.3924 18.6224 7.45999 18.6224C4.70802 18.6224 2.15141 17.8512 0 16.5119C0.390727 16.555 0.766982 16.5702 1.17339 16.5702C3.44419 16.5702 5.53409 15.8282 7.20433 14.5623C5.0686 14.5192 3.27897 13.1658 2.66153 11.3038C2.96181 11.347 3.26329 11.3762 3.57925 11.3762C4.0146 11.3762 4.45236 11.3178 4.85876 11.2163C2.63138 10.78 0.963552 8.88884 0.963552 6.60451V6.54617C1.61115 6.89501 2.36245 7.11317 3.15838 7.14234C1.84992 6.30001 0.992495 4.85917 0.992495 3.22934C0.992495 2.35667 1.23248 1.55633 1.65335 0.858667C4.04475 3.70884 7.63968 5.57201 11.67 5.77617C11.5952 5.42617 11.5494 5.06334 11.5494 4.69934C11.5494 2.10934 13.7152 0 16.4069 0C17.8058 0 19.0684 0.567001 19.956 1.484C21.0534 1.27983 22.105 0.886668 23.0384 0.348834C22.6778 1.43967 21.9096 2.35667 20.9027 2.93884C21.8807 2.83617 22.8286 2.57484 23.6993 2.21084C23.0384 3.14184 22.2123 3.97134 21.2645 4.641Z" fill="white"/>
</svg>
